<svg xmlns="http://www.w3.org/2000/svg" version="1.1" xmlns:xlink="http://www.w3.org/1999/xlink" xmlns:svgjs="http://svgjs.com/svgjs" width="512" height="512"><svg version="1.1" id="SvgjsSvg1000" xmlns="http://www.w3.org/2000/svg" xmlns:xlink="http://www.w3.org/1999/xlink" x="0px" y="0px" viewBox="0 0 512 512" style="enable-background:new 0 0 512 512;" xml:space="preserve">
<style type="text/css">
	.st0{font-family:'AmericanTypewriter';}
	.st1{font-size:124.951px;}
</style>
<g>
	<g>
		<path d="M0.4,154.89c0.78-1.38,2.2-1.6,3.54-1.98c40.8-11.41,81.59-22.85,122.4-34.22C184.21,102.59,242.1,86.49,300,70.47
			c27.86-7.71,55.76-15.24,83.65-22.84c0.31-0.08,0.63-0.14,1.04,0.11c-3.68,1.09-7.36,2.2-11.04,3.27
			c-95.82,28.04-191.81,55.52-287.81,82.96c-26.32,7.52-52.65,15.03-78.99,22.5c-1.46,0.41-1.84,0.97-1.59,2.47
			C12.3,201.96,19.31,245,26.3,288.03c6.69,41.26,13.34,82.53,20.01,123.8c1.41,8.74,2.78,17.49,4.22,26.22
			c0.11,0.64-0.33,2.01,1.26,1.64c1.16-0.27,2.04-0.52,1.76-2.21c-2.74-16.6-5.4-33.2-8.06-49.81c-2.87-17.92-5.7-35.85-8.58-53.77
			c-2.44-15.23-4.95-30.45-7.39-45.68c-2.76-17.26-5.47-34.54-8.22-51.8c-2.31-14.51-4.65-29.01-6.97-43.52
			c-1.47-9.19-2.93-18.38-4.42-27.57c-0.28-1.74,0.67-2.36,2.13-2.77c8.33-2.33,16.66-4.7,24.99-7.03
			c43.66-12.22,87.3-24.5,130.98-36.65c48.48-13.48,96.99-26.86,145.49-40.27c17.64-4.88,35.3-9.7,52.96-14.54
			c0.25-0.07,0.5-0.11,0.82,0.07c-4.8,1.41-9.6,2.83-14.41,4.23c-40.79,11.81-81.56,23.69-122.38,35.42
			c-62.9,18.07-125.75,36.34-188.77,53.99c-8.65,2.42-17.27,4.97-25.94,7.34c-1.77,0.49-2.12,1.32-1.84,2.99
			c3.71,22.36,7.4,44.73,11.03,67.11c3.95,24.28,7.82,48.57,11.75,72.86c3.26,20.15,6.58,40.29,9.84,60.43
			c3,18.57,5.96,37.15,8.94,55.73c0.63,3.94,1.39,7.86,1.9,11.81c0.23,1.73,0.85,1.84,2.34,1.41c19.78-5.68,39.55-11.36,59.36-16.94
			c79.09-22.28,158.17-44.55,237.28-66.77c35.93-10.09,71.89-20.06,107.86-30.03c1.61-0.45,2.05-0.95,1.76-2.69
			c-2.42-14.77-4.72-29.56-7.05-44.35c-2.76-17.54-5.51-35.08-8.26-52.62c-2.35-14.98-4.7-29.95-7.02-44.93
			c-2.35-15.17-4.68-30.35-6.97-45.53c-2.35-15.59-4.65-31.18-6.97-46.78c-0.49-3.28-0.93-6.57-1.04-9.91
			c0.98,5.61,1.96,11.22,2.93,16.83c2.92,16.9,5.89,33.8,8.74,50.72c3.84,22.81,7.59,45.64,11.36,68.46
			c4.18,25.26,8.36,50.53,12.52,75.79c1.91,11.55,3.77,23.11,5.7,34.66c0.32,1.94-0.63,2.58-2.26,3.05
			c-19.76,5.66-39.5,11.4-59.26,17.05c-35.3,10.1-70.61,20.16-105.92,30.22c-79.82,22.73-159.67,45.36-239.58,67.78
			c-5.37,1.51-4.46,0.15-3.73,5.91c0.21,1.61,0.91,1.86,2.43,1.42c13.3-3.87,26.6-7.71,39.93-11.49
			c63.08-17.88,126.16-35.78,189.26-53.57c49.95-14.08,99.93-28.03,149.91-42c10.78-3.01,21.59-5.93,32.41-8.78
			c1.84-0.48,2.41-1.11,2.09-3.09c-3.17-19.52-6.24-39.05-9.32-58.58c-3.19-20.19-6.38-40.38-9.53-60.57
			c-3.84-24.6-7.69-49.19-11.46-73.8c-2.09-13.62-4.02-27.26-6.01-40.9c-0.07-0.45-0.06-0.92,0.16-1.42
			c0.96,5.36,1.95,10.72,2.88,16.09c7.21,41.59,14.02,83.24,20.86,124.89c5.13,31.2,10.25,62.41,15.33,93.62
			c0.94,5.77,1.71,5.04-3.91,6.71c-45.79,13.6-91.78,26.5-137.73,39.55c-70.95,20.15-141.94,40.18-212.93,60.23
			c-21.21,5.99-42.44,11.89-63.67,17.83c-3.15,0.88-3.75,0.48-4.24-2.7c-0.26-1.71-0.58-3.41-0.82-5.12
			c-0.18-1.31-0.71-1.92-2.12-1.38c-0.93,0.36-1.91,0.59-2.88,0.82c-2.03,0.48-3.09-0.27-3.44-2.45
			c-1.07-6.57-2.13-13.14-3.18-19.71c-4.46-27.8-8.92-55.61-13.38-83.41c-4.49-28-8.98-56-13.46-84
			c-4.89-30.56-9.77-61.13-14.67-91.69c-0.4-2.47-0.57-4.99-1.34-7.4C0.4,155.96,0.4,155.43,0.4,154.89z"></path>
		<path d="M399.63,269.33c-0.18,4.72-2.28,8.22-5.29,11.2c-5.77,5.7-12.9,9.19-20.43,11.8c-13.35,4.62-26.95,8.47-40.45,12.63
			c-31.2,9.63-62.41,19.22-93.62,28.8c-45.42,13.94-90.84,27.85-136.27,41.76c-1.53,0.47-3.07,0.92-4.62,1.3
			c-2.17,0.53-3.48,0.01-4.47-1.95c-0.48-0.94-1.11-1.42-2.08-1.63c-0.8-0.17-1.55-0.56-2.02-1.22c-1.45-2.06-2.52-4.35-4.91-5.69
			c-1.06-0.6-0.42-1.5,0.66-2.01c4.44-2.06,9.2-3.15,13.88-4.41c7.73-2.08,15.31-4.61,22.95-6.95
			c41.29-12.64,82.56-25.34,123.83-38.04c29.43-9.05,58.84-18.13,88.27-27.19c8.15-2.51,16.37-4.81,24.42-7.65
			c7.33-2.59,14.35-5.79,20.26-10.99c4.41-3.88,6.97-8.66,7.03-14.63c0.01-1.27,1.91-2,3.53-1.24c2.11,0.99,3.74,2.64,4.9,4.58
			c1.76,2.97,2.81,6.29,4.06,9.5C399.56,268.01,399.55,268.85,399.63,269.33z"></path>
		<path d="M84.01,362.81c-2.37,0.05-3.83-1.14-4.08-2.86c-0.28-1.93,0.69-3.43,2.7-4.05c6.93-2.13,13.87-4.24,20.8-6.37
			c82.78-25.44,165.57-50.89,248.35-76.34c6.06-1.86,11.95-4.12,17.38-7.45c2.97-1.82,5.76-3.87,7.75-6.8
			c2.38-3.52,1.6-6.1-2.3-7.74c-1.61-0.68-3.31-1.01-5.04-1.15c-6.92-0.56-10.05-4.76-8.59-11.6c0.84-3.94,2.53-7.56,4.46-11.06
			c5.72-10.36,12.85-19.73,20.31-28.87c1.55-1.9,3.64-2.11,5.25-0.69c1.55,1.36,1.57,3.43,0.01,5.34
			c-6.55,7.99-12.77,16.21-18.02,25.13c-2.23,3.79-4.31,7.65-5.23,12.02c-0.37,1.74,0.11,2.68,1.97,2.77
			c2.68,0.13,5.28,0.67,7.76,1.72c7.8,3.33,10.04,10.75,5.36,17.85c-3.14,4.76-7.72,7.83-12.59,10.53
			c-7.63,4.23-15.98,6.57-24.25,9.11c-84.77,26.06-169.54,52.11-254.31,78.16C88.97,361.3,86.24,362.13,84.01,362.81z"></path>
		<path d="M148.24,285.88c1.73-3.85,3.33-7.4,4.92-10.96c12.66-28.35,25.33-56.69,37.99-85.04c0.3-0.66,0.57-1.38,1.02-1.93
			c1.16-1.41,2.7-1.74,4.3-0.9c1.59,0.83,2.28,2.27,1.74,4.03c-0.39,1.26-1.02,2.45-1.57,3.67
			c-15.29,34.24-30.59,68.48-45.87,102.73c-0.74,1.66-1.75,2.9-3.7,2.79c-2.02-0.12-2.99-1.45-3.46-3.32
			c-7.6-30.64-15.21-61.28-22.82-91.92c-0.13-0.51-0.12-1.06-0.68-1.58c-1.9,8.07-3.79,16.04-5.66,24.02
			c-9.64,41.1-19.28,82.2-28.9,123.31c-0.44,1.89-0.95,3.58-3.22,4.04c-0.66,0.14-1.32,0.7-1.79,1.23
			c-1.13,1.28-1.82,0.57-2.45-0.44c-0.71-1.13-0.36-2.31-0.09-3.48c4.85-20.64,9.69-41.29,14.54-61.93
			c7.96-33.91,15.91-67.82,23.87-101.73c0.23-0.96,0.35-1.98,1.04-2.77c0.9-1.05,2.06-1.5,3.4-1.2c1.6,0.35,2.42,1.44,2.81,3.02
			c1.95,7.94,3.96,15.87,5.93,23.81c6.03,24.26,12.04,48.52,18.07,72.78C147.79,284.59,147.98,285.06,148.24,285.88z"></path>
		<path d="M127.64,245.41c-0.41,3.63-1.31,6.92-2.08,10.22c-6.84,29.1-13.71,58.19-20.51,87.29c-0.51,2.17-1.52,3.41-3.6,4.27
			c-2.83,1.17-5.56,2.54-8.58,3.18c-0.66,0.14-1.22,0.48-1.74,0.93c-0.67,0.56-1.47,0.69-2.24,0.27c-0.85-0.46-0.85-1.32-0.68-2.12
			c0.52-2.48,1.06-4.95,1.63-7.41c6.5-28.02,13-56.03,19.52-84.05c3.06-13.16,6.17-26.32,9.28-39.47c0.24-1.03,0.59-2.05,1-3.03
			c0.47-1.11,1.2-0.97,1.74-0.07c0.37,0.61,0.7,1.34,0.77,2.04c0.71,6.71,3.29,13.03,4.05,19.74
			C126.52,240.04,127.17,242.83,127.64,245.41z"></path>
		<path d="M161.5,314.69c-1.26-0.04-2.22-0.6-2.94-1.54c-0.56-0.74-1.19-1.17-2.16-1.21c-2.72-0.1-4.4-1.67-5.4-4.07
			c-0.61-1.46-0.88-3.03-2.03-4.28c-0.56-0.6-0.84-1.57,0.2-2.24c2.2-1.4,3.23-3.66,4.29-5.89c6.03-12.69,11.87-25.47,17.57-38.31
			c9.19-20.7,18.46-41.36,27.69-62.03c0.27-0.61,0.53-1.22,0.76-1.85c0.65-1.81,1.69-2.08,2.89-0.51c0.79,1.03,1.57,1.34,2.82,1.34
			c2.5,0,4.52,2.04,4.77,4.75c0.11,1.2,0.44,2.1,1.4,2.91c1.35,1.15,1.68,2.7,0.93,4.35c-3.16,6.9-6,13.95-9.49,20.7
			c-1.06,2.06-2.92,3.43-4.32,5.21c-11.06,14.01-18.97,29.54-22.97,46.98c-0.6,2.61-0.9,5.26-0.74,7.93
			c0.11,1.91-0.27,3.7-1.04,5.43c-2.93,6.57-5.86,13.14-8.77,19.71C164.27,313.64,163.17,314.55,161.5,314.69z"></path>
		<path d="M239.42,233.41c-0.15,9.05-1.45,16.65-3.07,24.21c-0.39,1.83-1.47,2.82-3.31,3.27c-8.27,2.02-16.53,4.13-24.79,6.19
			c-2.47,0.62-4.36-0.36-4.91-2.47c-0.52-2.02,0.75-3.72,3.3-4.36c7.23-1.82,14.46-3.62,21.69-5.42c0.76-0.19,1.52-0.21,1.73-1.29
			c1.56-8.32,3.08-16.64,1.98-25.16c-0.8-6.24-3.19-7.57-8.72-4.6c-7.09,3.8-12.82,9.3-17.95,15.39
			c-9.67,11.47-16.71,24.31-19.94,39.07c-0.81,3.72-1.22,7.48-0.63,11.3c0.64,4.13,2.09,5.43,6.2,5.27
			c10.56-0.39,20.38-3.69,29.94-7.87c5.74-2.51,11.32-5.34,16.11-9.5c1.52-1.32,3.59-1.09,4.85,0.32c1.33,1.49,1.25,3.51-0.33,4.99
			c-3.3,3.06-7.16,5.32-11.12,7.38c-10.53,5.46-21.55,9.51-33.34,11.21c-2.5,0.36-5.04,0.55-7.57,0.58
			c-5.47,0.08-9.63-3.35-11.15-9.07c-1.57-5.9-0.99-11.82,0.52-17.58c5.88-22.46,17.83-40.95,36.57-54.88
			c2.89-2.15,6.03-3.93,9.6-4.74c5.79-1.32,10.28,1.04,12.54,6.51C239.26,226.17,239.38,230.43,239.42,233.41z"></path>
		<path d="M429.88,322.76c-7.99-0.33-15.08-2.5-20.55-8.53c-2.07-2.28-4.53-4.11-6.94-6.01c-9.13-7.19-9.01-17.87,0.29-24.95
			c4.04-3.07,8.67-4.57,13.66-5.17c7.69-0.92,14.85,0.42,21.3,4.85c2.34,1.61,4.27,3.68,5.67,6.11c1.3,2.25,3.19,3.89,4.92,5.73
			c2.01,2.14,4.04,4.37,4.54,7.36c1.19,7.17-1.47,12.3-7.8,16.52C440.3,321.78,435.1,322.42,429.88,322.76z M419.84,307.19
			c4.84,0,8.79-1,12.5-2.99c2.03-1.09,3.76-2.53,4.9-4.55c1.78-3.15,0.41-5.77-3.18-6.04c-1.98-0.15-3.99-0.08-5.98-0.08
			c-4.83,0.01-9.11,1.62-12.95,4.47c-1.42,1.05-2.44,2.46-3.15,4.04c-0.96,2.15-0.26,3.62,2,4.29
			C416.09,306.97,418.26,307.29,419.84,307.19z M429.84,317.54c4.9,0.14,9.19-1.27,13.29-3.52c4.36-2.39,6.36-6.57,5.17-11.37
			c-0.34-1.39-1.1-2.83-2.5-3.13c-1.5-0.32-1.78,1.41-2.25,2.38c-2.14,4.43-5.72,7.17-10.04,9.23c-3.55,1.69-7.31,2.38-11.16,2.79
			c-0.83,0.09-1.99-0.08-2.08,1.05c-0.09,1.08,1.07,1.26,1.86,1.46C424.73,317.07,427.31,317.75,429.84,317.54z M420.95,284.73
			c-0.88,0-1.42,0-1.95,0c-5.03,0.04-9.53,1.5-13.42,4.81c-3.19,2.71-4.02,6.98-1.88,10.39c1.24,1.98,2.3,1.97,3.46-0.08
			c2.57-4.52,6.32-7.64,11.14-9.52c2.88-1.12,5.83-1.81,8.92-2c0.95-0.06,2.33-0.01,2.45-1.2c0.13-1.24-1.29-1.34-2.18-1.63
			C425.27,284.77,422.94,284.64,420.95,284.73z"></path>
		<path d="M207.95,269.85c-0.41,2.21-1.75,4.01-2.62,6.02c-1.76,4.03-3.43,8.09-4.55,12.35c-0.46,1.76-1.28,2.74-3.25,3.2
			c-2.4,0.55-4.67,1.37-7.22,1.24c-2.16-0.11-3.1-1.2-3.51-3.09c-0.67-3.06-0.27-6.11,0.29-9.12c2.47-13.31,8.5-25,16.49-35.77
			c4.67-6.3,10.12-11.83,16.46-16.47c1.62-1.19,3.34-2.22,5.2-2.95c2.61-1.02,4.14,0.24,4.64,3c0.94,5.15-0.54,10.04-1.11,15.04
			c-0.1,0.87-0.63,1.44-1.19,2.01c-2.57,2.6-5.15,5.2-7.73,7.8c-0.57,0.57-1.15,1.1-1.97,1.3c-3.82,0.95-7.46,2.45-11.18,3.73
			c-4.75,1.63-6.19,5.13-3.77,9.13c1.15,1.89,2.92,2.62,5.06,2.64L207.95,269.85z"></path>
		<path d="M274.14,265.74c5.95-6.29,11.75-12.44,17.56-18.58c1.92-2.03,3.84-4.07,5.76-6.1c2.48-2.62,4-2.67,6.57-0.22
			c4.68,4.46,9.35,8.92,14.02,13.39c2.2,2.1,2.19,2.1,3.84-0.56c7.31-11.79,15.36-23.03,24.62-33.39c0.31-0.35,0.61-0.71,0.93-1.04
			c1.54-1.54,3.52-1.7,5-0.41c1.54,1.34,1.68,3.46,0.16,5.15c-3.62,4-7.08,8.14-10.35,12.43c-6.43,8.42-12.34,17.19-17.65,26.36
			c-1.87,3.23-4.04,3.55-6.7,1c-5.24-5.02-10.53-10-15.72-15.08c-1.03-1-1.52-0.89-2.44,0.1c-7.64,8.18-15.33,16.3-23.01,24.44
			c-2.56,2.72-4.83,2.5-6.71-0.67c-3.56-6.01-7.11-12.02-10.65-18.04c-1.4-2.37-1.06-4.44,0.86-5.53c1.93-1.1,3.8-0.37,5.23,2.06
			C268.33,255.89,271.19,260.75,274.14,265.74z"></path>
		<path d="M207.99,269.91c-0.02-0.77,0.44-0.95,1.11-1.11c7.51-1.83,14.99-3.76,22.51-5.55c4.03-0.96,6.28-3.34,7.07-7.42
			c1.94-10.11,3.39-20.24,1.54-30.53c-0.16-0.92,0.1-1.22,0.99-1.5c1.2-0.37,2.22-0.23,3.23,0.42c1.31,0.84,2.51,1.85,3.25,3.2
			c2.41,4.44,4.76,8.94,5.53,14c1.13,7.53,0.23,15.01-1,22.45c-0.46,2.76-0.99,5.51-1.67,8.21c-0.73,2.92-5.15,4.78-7.78,3.25
			c-2.32-1.35-4.57-1.22-6.87-0.13c-0.96,0.46-1.96,0.93-2.75,1.62c-3.1,2.68-6.9,3.65-10.72,4.61c-1.68,0.42-3.22,0.21-4.33-1.23
			c-0.65-0.83-1.49-0.97-2.44-1.12c-2.79-0.46-4.72-2.66-4.83-5.47c-0.03-0.73-0.11-1.28-0.84-1.62c-0.95-0.44-1.47-1.33-2.03-2.15
			C207.95,269.85,207.99,269.91,207.99,269.91z"></path>
		<path d="M190.25,303.46c10.71,0.01,20.81-2.76,30.64-6.75c6.25-2.53,12.32-5.42,17.89-9.26c1.98-1.36,3.87-2.77,5.07-4.99
			c0.92-1.7,2.16-0.68,2.88,0.2c0.79,0.98,1.55,1.35,2.82,1.38c2.59,0.04,4.6,2.04,4.81,4.71c0.1,1.29,0.5,2.2,1.48,3.08
			c1.72,1.54,1.71,3.66-0.02,5.25c-2.81,2.59-5.99,4.5-9.75,5.61c-10.34,3.07-20.61,6.38-30.91,9.59c-3.75,1.17-7.5,2.34-11.27,3.42
			c-1.56,0.45-3.2,0.37-4.71-0.29c-2.49-1.09-5.02-2.11-7.37-3.46c-2.77-1.59-4.97-3.64-4.98-7.33c-0.01-1.33,0.39-1.22,1.24-1.18
			C188.78,303.48,189.52,303.46,190.25,303.46z"></path>
		<path d="M362.2,228.5c0.03,0.98-0.48,1.79-0.85,2.63c-1.46,3.24-2.47,6.6-3.1,10.09c-0.26,1.42-0.25,2.84,0.34,4.12
			c0.67,1.45,0.25,2.5-0.64,3.63c-5.54,7.09-10.63,14.5-15.43,22.12c-1.04,1.65-2.27,2.86-4.24,3.34c-1.48,0.36-2.9,0.98-4.34,1.49
			c-3.82,1.35-7.18,0.71-10.03-2.25c-1.11-1.15-2.29-2.23-3.39-3.39c-1.4-1.49-1.26-3.18,0.6-3.57c4.19-0.88,5.83-4.33,7.76-7.3
			c6.74-10.41,13.7-20.64,21.79-30.06c1.52-1.77,3.07-3.48,4.21-5.55c0.88-1.6,2-0.51,2.72,0.24c0.72,0.75,1.29,1.3,2.45,1.35
			C361.41,225.43,362.16,226.72,362.2,228.5z"></path>
		<path d="M406.42,214.74c0.02,1.3-0.61,2.24-1.34,3.12c-7.08,8.59-13.67,17.52-19.18,27.21c-0.62,1.1-0.98,1.47-2.34,0.52
			c-2.89-2.02-6.24-3.34-9.74-3.85c-3.03-0.44-4-1.6-2.93-4.52c1.69-4.59,4.28-8.71,6.9-12.8c3.95-6.17,8.44-11.96,12.95-17.72
			c0.82-1.04,1.59-2.13,2.26-3.28c0.93-1.58,1.88-1.89,2.99-0.53c0.94,1.16,1.97,1.51,3.39,1.62c2.53,0.21,4.38,2.14,4.49,4.8
			c0.06,1.34,0.45,2.23,1.48,3.02C406.14,212.93,406.47,213.83,406.42,214.74z"></path>
		<path d="M127.12,190.1c0.81,1.62,2.13,1.62,3.66,1.79c3.2,0.37,4.32,3.03,5.42,5.74c4.42,10.91,6.08,22.55,9.13,33.81
			c2.76,10.21,5.1,20.54,7.74,30.78c1.47,5.71-1.15,10.37-3.55,15.11c-0.4,0.8-0.98,0.56-1.4-0.01c-0.57-0.76-0.79-1.68-1.01-2.59
			c-6.51-26.16-13.03-52.31-19.5-78.47c-0.47-1.92-0.63-3.91-0.94-5.87C126.82,190.31,126.97,190.21,127.12,190.1z"></path>
		<path d="M287.59,289.2c-0.83,0.03-1.73-0.05-2.21-0.71c-1.01-1.36-2.37-1.77-3.93-1.99c-2.04-0.28-3.21-1.89-4.29-3.36
			c-1.2-1.63-2.31-3.38-2.56-5.51c-0.09-0.73-0.19-1.26,0.58-1.66c3.93-2.03,6.61-5.55,9.71-8.51c4.8-4.6,9.21-9.61,13.83-14.4
			c1.85-1.92,3.82-1.87,5.45,0.12c2.57,3.14,5.75,5.68,8.29,8.88c1.17,1.47,0.7,2.12-0.25,3.11c-5.22,5.51-10.43,11.03-15.65,16.54
			c-1.92,2.03-3.87,4.04-5.8,6.06C289.9,288.67,288.89,289.25,287.59,289.2z"></path>
		<path d="M367.65,251.89c1.98-0.06,3.87,0.07,5.64,0.85c1.21,0.54,2.35,1.19,2.18,2.91c-0.14,1.43-0.49,2.58-1.98,3.1
			c-1.56,0.54-2.78,0.34-3.77-1.16c-0.64-0.96-1.37-1.89-1.2-3.05C368.68,253.48,367.7,252.92,367.65,251.89z"></path>
		<path d="M275.78,258.95c-0.18,0.75-0.19,1.85-1.23,1.69c-1.27-0.2-2.03-1.24-2.06-2.54c-0.02-0.92,0.64-1.5,1.56-1.42
			C275.38,256.78,275.69,257.81,275.78,258.95z"></path>
	</g>
</g>
<text transform="matrix(0.8264 -0.2754 0.3161 0.9487 231.8306 213.7704)" class="st0 st1" svgjs:data="{&quot;leading&quot;:&quot;1.3&quot;}">BCT</text>
</svg><style>@media (prefers-color-scheme: light) { :root { filter: none; } }
</style></svg>